<?xml version="1.0" standalone="no"?>
<!DOCTYPE svg PUBLIC "-//W3C//DTD SVG 20010904//EN"
 "http://www.w3.org/TR/2001/REC-SVG-20010904/DTD/svg10.dtd">
<svg version="1.0" xmlns="http://www.w3.org/2000/svg"
 width="700.000000pt" height="700.000000pt" viewBox="0 0 700.000000 700.000000"
 preserveAspectRatio="xMidYMid meet">
<metadata>
Created by potrace 1.11, written by Peter Selinger 2001-2013
</metadata>
<g transform="translate(0.000000,700.000000) scale(0.100000,-0.100000)"
fill="#000000" stroke="none">
<path d="M2620 4192 c-1048 -1032 -1905 -1881 -1905 -1886 0 -17 671 -460 791
-523 193 -100 416 -176 719 -247 391 -90 688 -126 1040 -126 829 1 1603 264
2509 853 l108 70 267 67 c147 36 265 70 264 76 -1 6 -310 766 -686 1690 l-685
1679 -249 112 c-136 61 -252 112 -258 112 -5 0 -867 -845 -1915 -1877z"/>
<path d="M6065 2036 c-91 -11 -91 -11 -210 -92 -503 -341 -1049 -579 -1635
-713 -289 -65 -554 -98 -890 -111 -439 -16 -863 22 -1290 116 -218 49 -552
152 -719 223 -41 17 -76 30 -78 27 -6 -6 214 -116 352 -176 353 -154 662 -248
1025 -314 414 -75 879 -86 1310 -30 812 103 1652 433 2478 971 78 51 142 97
142 103 0 14 -368 11 -485 -4z"/>
</g>
</svg>
